<svg style="isolation:isolate" viewBox="0 0 1500 300" width="1500px" height="300px"><defs><filter id="shNTq9aTV1QOnIGBZqGgLO1gsTEDZlb5" x="-200%" y="-200%" width="400%" height="400%" filterUnits="objectBoundingBox" color-interpolation-filters="sRGB"><feGaussianBlur xmlns="http://www.w3.org/2000/svg" in="SourceGraphic" stdDeviation="10.73402265709757"/><feOffset xmlns="http://www.w3.org/2000/svg" dx="0" dy="0" result="pf_100_offsetBlur"/><feFlood xmlns="http://www.w3.org/2000/svg" flood-color="#FFFFFF" flood-opacity="1"/><feComposite xmlns="http://www.w3.org/2000/svg" in2="pf_100_offsetBlur" operator="in" result="pf_100_dropShadow"/><feBlend xmlns="http://www.w3.org/2000/svg" in="SourceGraphic" in2="pf_100_dropShadow" mode="normal"/></filter></defs><g filter="url(#shNTq9aTV1QOnIGBZqGgLO1gsTEDZlb5)"><path d=" M 29.231 12.741 L 59.221 21.834 L 81.572 19.04 L 116.923 45.048 L 170.769 37.356 L 212.308 75.818 L 253.846 101.971 L 281.538 103.51 L 321.538 85.048 L 352.308 85.048 L 383.077 120.433 L 407.692 126.587 L 467.692 135.818 L 504.615 145.048 L 540 177.356 L 572.308 208.125 L 610.769 221.971 L 663.077 234.279 L 729.231 245.048 L 789.231 237.356 L 872.308 228.125 L 918.462 201.971 L 964.615 208.125 L 1046.154 188.125 L 1100 172.741 L 1133.846 148.125 L 1176.923 148.125 L 1226.154 140.433 L 1261.539 138.895 L 1281.539 117.356 L 1326.154 109.664 L 1373.846 108.125 L 1387.692 81.971 L 1412.308 66.587 L 1443.077 69.664 L 1456.923 41.971 L 1470.769 26.587 L 1464.576 53.965 L 1460.385 67.935 L 1449.209 81.904 L 1422.667 81.904 L 1405.903 88.889 L 1394.727 102.859 L 1383.552 122.416 L 1355.612 121.02 L 1334.657 122.416 L 1294.145 128.004 L 1278.461 155.818 L 1249.231 161.971 L 1220 163.51 L 1175.403 174.104 L 1144.669 179.692 L 1120.921 204.838 L 1092.308 208.125 L 1060.851 217.411 L 1024.529 222.999 L 999.384 241.159 L 960 243.51 L 932.308 232.741 L 906.154 252.741 L 873.846 272.741 L 838.732 270.496 L 789.838 271.893 L 761.898 278.878 L 733.959 276.084 L 696.241 287.259 L 652.935 266.305 L 604.04 253.732 L 573.846 243.51 L 553.846 223.51 L 518.462 195.818 L 487.692 172.741 L 455.385 160.433 L 424.615 148.125 L 400 148.125 L 376.923 137.356 L 349.791 100.065 L 324.646 100.065 L 300 111.202 L 281.34 115.432 L 254.797 114.035 L 232.308 103.51 L 212.888 90.286 L 189.231 68.125 L 169.582 48.377 L 129.231 52.741 L 115.385 52.741 L 80.176 28.819 L 49.442 23.231 L 29.231 12.741 Z " id="crack" fill="rgb(255,255,255)"/></g></svg>