<?xml version="1.0" encoding="UTF-8" standalone="no"?>
<!-- Generator: Gravit.io -->
<svg xmlns="http://www.w3.org/2000/svg" xmlns:xlink="http://www.w3.org/1999/xlink" style="isolation:isolate" viewBox="0 0 1500 300" width="1500px" height="300px"><defs><filter id="crcaUlvlmQWbaD654IUEEtZbP0XGkRuv" x="-200%" y="-200%" width="400%" height="400%" filterUnits="objectBoundingBox" color-interpolation-filters="sRGB"><feGaussianBlur xmlns="http://www.w3.org/2000/svg" in="SourceGraphic" stdDeviation="10.73402265709757"/><feOffset xmlns="http://www.w3.org/2000/svg" dx="0" dy="0" result="pf_100_offsetBlur"/><feFlood xmlns="http://www.w3.org/2000/svg" flood-color="#FFFFFF" flood-opacity="1"/><feComposite xmlns="http://www.w3.org/2000/svg" in2="pf_100_offsetBlur" operator="in" result="pf_100_dropShadow"/><feBlend xmlns="http://www.w3.org/2000/svg" in="SourceGraphic" in2="pf_100_dropShadow" mode="normal"/></filter></defs><g filter="url(#crcaUlvlmQWbaD654IUEEtZbP0XGkRuv)"><path d=" M 29.231 12.741 L 57 23.231 L 80.176 26.587 L 116.923 51 L 169.582 46 L 209 84 L 253.846 109.664 L 285 114.035 L 321.538 99 L 352.308 97 L 383 135 L 409 140.433 L 458 152 L 493 166 L 526 185 L 565 213 L 604.04 239 L 658 245.048 L 726 252.741 L 797 255 L 873.846 241.159 L 918.462 224 L 964.615 217.411 L 1046.154 200 L 1100 185 L 1133.846 174.104 L 1175.403 163.51 L 1226.154 155.818 L 1261.539 150 L 1284 132 L 1326.154 114.035 L 1375 111.202 L 1390 92 L 1412.308 76 L 1444 74 L 1455 52.741 L 1470.769 26.587 L 1459 51 L 1455 63 L 1447 76 L 1417 78 L 1405.903 84 L 1392 95 L 1378 114.035 L 1358 115.432 L 1334.657 115.432 L 1294.145 128.004 L 1269 150 L 1249.231 155.818 L 1220 160 L 1177 168 L 1144.669 174.104 L 1120.921 182 L 1092.308 191 L 1060.851 200 L 1029 206 L 999.384 213 L 963 222.999 L 935 224 L 908 232.741 L 873.846 248 L 841 251 L 789.838 258 L 766 258 L 733.959 258 L 694 252.741 L 653 248 L 607 243.51 L 587 232.741 L 560 213 L 518.462 185 L 487.692 166 L 458 155.818 L 428 146 L 403 140.433 L 380 137 L 349.791 99 L 321.538 100.065 L 303 108.125 L 281.34 115.432 L 253.846 111.202 L 232.308 100.065 L 212.888 90.286 L 189.231 68.125 L 169.582 48.377 L 133 51 L 115.385 52.741 L 80.176 28.819 L 49.442 23.231 L 29.231 12.741 Z " id="crack" fill="rgb(255,255,255)"/></g></svg>