<?xml version="1.0" encoding="UTF-8" standalone="no"?>
<!-- Generator: Gravit.io -->
<svg xmlns="http://www.w3.org/2000/svg" xmlns:xlink="http://www.w3.org/1999/xlink" style="isolation:isolate" viewBox="0 0 50 50" width="50px" height="50px"><g id="starfish"><g id="body"><path d=" M 37.91 49.618 L 26.608 41.753 C 25.721 41.135 24.279 41.135 23.392 41.753 L 12.09 49.618 C 11.202 50.235 10.736 49.896 11.049 48.861 L 15.036 35.682 C 15.349 34.647 14.904 33.277 14.042 32.623 L 3.07 24.305 C 2.209 23.652 2.387 23.103 3.468 23.081 L 17.234 22.801 C 18.315 22.779 19.481 21.932 19.836 20.91 L 24.357 7.905 C 24.712 6.883 25.288 6.883 25.643 7.905 L 30.164 20.91 C 30.519 21.932 31.685 22.779 32.766 22.801 L 46.532 23.081 C 47.613 23.103 47.791 23.652 46.93 24.305 L 35.958 32.623 C 35.096 33.277 34.651 34.647 34.964 35.682 L 38.951 48.861 C 39.264 49.896 38.798 50.235 37.91 49.618 Z " id="Polygon" fill="rgb(50,150,100)"/><circle vector-effect="non-scaling-stroke" cx="6.539172405193085" cy="24.572628910055855" r="1.0256015330448278" id="Ellipse" fill="rgb(67,204,136)"/><circle vector-effect="non-scaling-stroke" cx="43.4608275948069" cy="24.572628910055855" r="1.0256015330448278" id="Ellipse" fill="rgb(67,204,136)"/><circle vector-effect="non-scaling-stroke" cx="13.71838313650688" cy="46.22606305559482" r="1.0256015330448278" id="Ellipse" fill="rgb(67,204,136)"/><circle vector-effect="non-scaling-stroke" cx="36.2816168634931" cy="46.22606305559482" r="1.0256015330448278" id="Ellipse" fill="rgb(67,204,136)"/><circle vector-effect="non-scaling-stroke" cx="10.128777770849993" cy="25.81659254800273" r="1.5384022995672417" id="Ellipse" fill="rgb(67,204,136)"/><circle vector-effect="non-scaling-stroke" cx="39.87122222915001" cy="25.81659254800273" r="1.5384022995672453" id="Ellipse" fill="rgb(67,204,136)"/><circle vector-effect="non-scaling-stroke" cx="16.282386969118953" cy="42.63645768993791" r="1.5384022995672417" id="Ellipse" fill="rgb(67,204,136)"/><circle vector-effect="non-scaling-stroke" cx="33.717613030881026" cy="42.63645768993791" r="1.5384022995672453" id="Ellipse" fill="rgb(67,204,136)"/><circle vector-effect="non-scaling-stroke" cx="14.743984669551708" cy="27.867795614092387" r="2.0512030660896556" id="Ellipse" fill="rgb(67,204,136)"/><circle vector-effect="non-scaling-stroke" cx="35.25601533044828" cy="27.867795614092387" r="2.0512030660896556" id="Ellipse" fill="rgb(67,204,136)"/><circle vector-effect="non-scaling-stroke" cx="19.871992334775854" cy="38.12381094454067" r="2.0512030660896556" id="Ellipse" fill="rgb(67,204,136)"/><circle vector-effect="non-scaling-stroke" cx="30.12800766522414" cy="38.12381094454067" r="2.0512030660896574" id="Ellipse" fill="rgb(67,204,136)"/></g><g id="face"><path d=" M 25 0.074 C 44.217 0.074 31.783 24.573 25 24.573 C 18.217 24.573 5.783 0.074 25 0.074 Z " id="skin" fill="rgb(50,150,100)"/><path d=" M 27.311 10.096 C 28.456 7.511 30.644 5.971 32.194 6.657 C 33.745 7.344 34.074 10 32.93 12.584 C 31.786 15.168 29.598 16.709 28.047 16.022 C 26.497 15.335 26.167 12.68 27.311 10.096 Z " id="reye" fill="rgb(80,80,80)"/><path d=" M 23.107 10.096 C 21.963 7.511 19.775 5.971 18.225 6.657 C 16.674 7.344 16.344 10 17.489 12.584 C 18.633 15.168 20.821 16.709 22.371 16.022 C 23.922 15.335 24.252 12.68 23.107 10.096 Z " id="leye" fill="rgb(80,80,80)"/><circle vector-effect="non-scaling-stroke" cx="18.855072728167208" cy="9.291384976326741" r="1.0241545453054677" id="Ellipse" fill="rgb(235,235,235)"/><circle vector-effect="non-scaling-stroke" cx="31.144927271832845" cy="9.291384976326741" r="1.0241545453054677" id="Ellipse" fill="rgb(235,235,235)"/><path d=" M 21.105 18.509 C 22.355 19.332 22.941 20.557 25.202 20.557 C 27.463 20.557 28.292 19.024 29.299 18.509" id="Path" fill="rgb(80,80,80)"/></g></g></svg>