<?xml version="1.0" encoding="UTF-8" standalone="no"?>
<!-- Generator: Gravit.io -->
<svg xmlns="http://www.w3.org/2000/svg" xmlns:xlink="http://www.w3.org/1999/xlink" style="isolation:isolate" viewBox="0 0 50 50" width="50px" height="50px"><g id="alienFace"><path d=" M 25 19.02 C 34.382 19.02 28.311 30.98 25 30.98 C 21.689 30.98 15.618 19.02 25 19.02 Z " id="skin" fill="rgb(50,150,100)"/><path d=" M 26.128 23.912 C 26.687 22.651 27.755 21.899 28.512 22.234 C 29.269 22.569 29.43 23.865 28.872 25.127 C 28.313 26.389 27.245 27.141 26.488 26.806 C 25.731 26.471 25.57 25.174 26.128 23.912 Z " id="reye" fill="rgb(80,80,80)"/><path d=" M 24.076 23.912 C 23.517 22.651 22.449 21.899 21.692 22.234 C 20.935 22.569 20.774 23.865 21.333 25.127 C 21.892 26.389 22.96 27.141 23.717 26.806 C 24.474 26.471 24.635 25.174 24.076 23.912 Z " id="leye" fill="rgb(80,80,80)"/><circle vector-effect="non-scaling-stroke" cx="22" cy="23.519790454016295" r="0.5" id="Ellipse" fill="rgb(235,235,235)"/><circle vector-effect="non-scaling-stroke" cx="28" cy="23.519790454016295" r="0.5" id="Ellipse" fill="rgb(235,235,235)"/><ellipse vector-effect="non-scaling-stroke" cx="25.1" cy="28.519790454016295" rx="1" ry="0.5" id="mouth" fill="rgb(80,80,80)"/></g></svg>