<?xml version="1.0" encoding="UTF-8" standalone="no"?><!-- Generator: Gravit.io --><svg xmlns="http://www.w3.org/2000/svg" xmlns:xlink="http://www.w3.org/1999/xlink" style="isolation:isolate" viewBox="0 0 800 800" width="800pt" height="800pt"><g><g><path d=" M 601.043 783.359 L 425.042 660.886 C 411.221 651.269 388.779 651.269 374.958 660.886 L 198.957 783.359 C 185.136 792.976 177.873 787.7 182.749 771.583 L 244.84 566.35 C 249.716 550.234 242.781 528.89 229.363 518.717 L 58.498 389.176 C 45.08 379.003 47.854 370.466 64.688 370.123 L 279.064 365.754 C 295.898 365.411 314.054 352.22 319.583 336.315 L 389.983 133.782 C 395.512 117.878 404.488 117.878 410.017 133.782 L 480.417 336.315 C 485.946 352.22 504.102 365.411 520.936 365.754 L 735.312 370.123 C 752.146 370.466 754.92 379.003 741.502 389.176 L 570.637 518.717 C 557.219 528.89 550.284 550.234 555.16 566.35 L 617.251 771.583 C 622.127 787.7 614.864 792.976 601.043 783.359 Z " fill="rgb(50,150,100)"/><circle vector-effect="non-scaling-stroke" cx="112.51678542270355" cy="393.34471793728756" r="15.97128969873868" fill="rgb(67,204,136)"/><circle vector-effect="non-scaling-stroke" cx="687.4832145772964" cy="393.34471793728756" r="15.971289698738701" fill="rgb(67,204,136)"/><circle vector-effect="non-scaling-stroke" cx="224.31581331387432" cy="730.5451399025764" r="15.971289698738673" fill="rgb(67,204,136)"/><circle vector-effect="non-scaling-stroke" cx="575.6841866861253" cy="730.5451399025764" r="15.971289698738701" fill="rgb(67,204,136)"/><circle vector-effect="non-scaling-stroke" cx="168.4162993682891" cy="412.71647489767633" r="23.956934548108023" fill="rgb(67,204,136)"/><circle vector-effect="non-scaling-stroke" cx="631.5837006317108" cy="412.71647489767633" r="23.956934548108052" fill="rgb(67,204,136)"/><circle vector-effect="non-scaling-stroke" cx="264.24403756072104" cy="674.6456259569907" r="23.956934548108038" fill="rgb(67,204,136)"/><circle vector-effect="non-scaling-stroke" cx="535.7559624392786" cy="674.6456259569907" r="23.956934548108052" fill="rgb(67,204,136)"/><circle vector-effect="non-scaling-stroke" cx="240.28710301261296" cy="444.6590542951536" r="31.942579397477374" fill="rgb(67,204,136)"/><circle vector-effect="non-scaling-stroke" cx="559.7128969873868" cy="444.6590542951536" r="31.942579397477402" fill="rgb(67,204,136)"/><circle vector-effect="non-scaling-stroke" cx="320.14355150630655" cy="604.3719512825406" r="31.942579397477346" fill="rgb(67,204,136)"/><circle vector-effect="non-scaling-stroke" cx="479.8564484936934" cy="604.3719512825406" r="31.942579397477346" fill="rgb(67,204,136)"/></g><g><path d=" M 400 11.837 C 699.257 11.837 505.628 393.345 400 393.345 C 294.372 393.345 100.743 11.837 400 11.837 Z " fill="rgb(50,150,100)"/><path d=" M 435.995 167.901 C 453.815 127.658 487.886 103.667 512.031 114.359 C 536.177 125.051 541.313 166.403 523.493 206.646 C 505.673 246.889 471.602 270.88 447.456 260.188 C 423.311 249.496 418.175 208.144 435.995 167.901 Z " fill="rgb(80,80,80)"/><path d=" M 370.526 167.901 C 352.706 127.658 318.635 103.667 294.489 114.359 C 270.344 125.051 265.208 166.403 283.028 206.646 C 300.848 246.889 334.919 270.88 359.065 260.188 C 383.21 249.496 388.346 208.144 370.526 167.901 Z " fill="rgb(80,80,80)"/><circle vector-effect="non-scaling-stroke" cx="304.3074620366896" cy="155.37591040430087" r="15.948756327218405" fill="rgb(235,235,235)"/><circle vector-effect="non-scaling-stroke" cx="495.6925379633111" cy="155.37591040430087" r="15.948756327218405" fill="rgb(235,235,235)"/><path d=" M 339.35 298.915 C 358.805 311.735 367.935 330.812 403.145 330.812 C 438.354 330.812 451.269 306.937 466.94 298.915" fill="rgb(80,80,80)"/></g></g></svg>