<?xml version="1.0" encoding="UTF-8" standalone="no"?>
<!-- Generator: Gravit.io -->
<svg viewBox="0 0 200 200" width="200px" height="200px"><defs><clipPath id="_clipPath_UH8OyR9lTRIYHnNETcPuwU6ZBm2ys1iA"><rect width="200" height="200"/></clipPath></defs><g clip-path="url(#_clipPath_UH8OyR9lTRIYHnNETcPuwU6ZBm2ys1iA)"><g id="tempest"><path d=" M 2.214 95.861 C 11.937 44.393 46.115 15.032 100.188 15.032 C 154.262 15.032 190.15 42.968 198.163 95.861 C 206.262 149.325 185.565 162.515 103 164 C 18.12 165.527 -7.824 148.995 2.214 95.861 Z " id="body" fill="rgb(200,220,240)"/><g id="eyeRgroup"><rect x="108.8" y="74.264" width="8.8" height="0.55" transform="matrix(-0.937,-0.35,0.35,-0.937,193.127,184)" id="browBR" fill="rgb(150,190,240)"/><path d=" M 108.816 70.3 Q 112.034 68.117 140.599 68.1 Q 169.165 68.084 174.816 70.3 L 174.816 71.525 Q 173.114 69.182 140.599 69.2 Q 108.085 69.218 108.816 71.525 L 108.816 70.3 Z " id="eyeR" fill="rgb(150,190,240)"/></g><g id="eyeLgroup"><rect x="91.2" y="74.264" width="8.8" height="0.55" transform="matrix(-0.937,0.35,-0.35,-0.937,211.25,110.877)" id="browBL" fill="rgb(150,190,240)"/><path d=" M 100 70.3 Q 96.782 68.117 68.217 68.1 Q 39.652 68.084 34 70.3 L 34 71.525 Q 35.702 69.182 68.217 69.2 Q 100.732 69.218 100 71.525 L 100 70.3 Z " id="eyeL" fill="rgb(150,190,240)"/></g><rect x="108.8" y="65.464" width="8.8" height="0.55" transform="matrix(0.937,-0.35,0.35,0.937,-15.853,43.807)" id="browR" fill="rgb(150,190,240)"/><rect x="91.2" y="65.464" width="8.8" height="0.55" transform="matrix(0.937,0.35,-0.35,0.937,29.076,-29.317)" id="browL" fill="rgb(150,190,240)"/><path d=" M 31.8 148.4 C 15.075 131.903 66.038 120.9 105.5 120.9 C 144.962 120.9 194.49 131.366 179.2 144 C 161.583 158.556 143.462 161 104 161 C 64.538 161 45.402 161.816 31.8 148.4 Z " id="bottomDark" fill="rgb(150,190,240)"/><path d=" M 120.529 116.009 C 124.875 108.506 151.539 110.099 171.129 125.909 C 182.398 135.004 153.363 126.857 146.929 124.809 C 134.829 120.959 114.849 125.814 120.529 116.009 Z " id="bottomDark" fill="rgb(150,190,240)"/><ellipse vector-effect="non-scaling-stroke" cx="70.29999929411713" cy="153.8999989888813" rx="5.499999993526785" ry="4.399999994821428" id="dropBigbottom" fill="rgb(200,220,240)"/><ellipse vector-effect="non-scaling-stroke" cx="77.44999928570189" cy="142.89999900182778" rx="2.7499999967633926" ry="2.199999997410714" id="dropSmallbottom" fill="rgb(200,220,240)"/><path d=" M 49.4 32.35 C 49.4 29.618 59.913 24.062 69.2 23 C 78.487 21.938 86.8 22.468 86.8 25.2 C 86.8 27.932 77.974 27.061 69.2 28.5 C 60.426 29.939 49.4 35.082 49.4 32.35 Z " id="dropMediumtop" fill="rgb(245,245,245)"/></g></g></svg>